<?xml version="1.0" encoding="UTF-8" standalone="no"?>
<!DOCTYPE svg PUBLIC "-//W3C//DTD SVG 1.1//EN" "http://www.w3.org/Graphics/SVG/1.1/DTD/svg11.dtd">
<svg xmlns="http://www.w3.org/2000/svg" version="1.1" viewBox="0.00 0.00 1650.00 833.00">
<g fill="#264e70">
<path d="
  M 100.19 0.00
  L 101.76 0.00
  Q 76.23 83.59 50.81 167.21
  C 39.22 205.34 31.52 229.16 23.11 253.53
  Q 20.68 260.55 20.09 266.77
  C 18.39 284.84 33.16 298.31 46.09 308.87
  C 137.78 383.67 231.61 459.08 322.13 531.90
  C 322.86 532.49 323.33 533.26 324.11 533.88
  Q 423.60 614.36 542.61 709.87
  Q 543.10 710.27 543.59 710.66
  Q 619.15 771.77 695.13 833.00
  L 692.66 833.00
  Q 616.75 771.80 541.10 710.64
  Q 540.68 710.29 539.43 709.29
  Q 416.19 610.40 320.39 532.85
  C 319.67 532.27 319.23 531.60 318.50 531.01
  Q 205.49 440.05 90.32 346.90
  Q 67.49 328.44 44.08 309.16
  C 31.53 298.83 18.63 286.51 18.34 270.41
  Q 18.20 262.65 21.17 254.14
  C 34.28 216.58 45.90 178.49 57.39 140.41
  Q 76.79 76.09 95.95 13.49
  Q 98.03 6.70 100.19 0.00
  Z"
/>
<path d="
  M 118.07 0.00
  L 119.74 0.00
  Q 113.01 21.78 106.44 43.56
  Q 83.88 118.28 60.83 192.86
  Q 52.40 220.14 43.68 244.76
  Q 41.17 251.85 40.48 258.32
  C 38.83 273.52 49.13 286.24 60.33 295.66
  Q 79.62 311.87 103.40 331.09
  Q 223.73 428.38 352.32 531.87
  C 353.13 532.52 353.58 533.23 354.37 533.87
  Q 447.73 609.47 572.68 709.75
  Q 573.33 710.27 573.97 710.79
  Q 649.46 771.82 725.36 833.00
  L 722.96 833.00
  C 671.49 791.56 620.12 750.00 568.63 708.61
  Q 459.50 620.89 350.61 532.88
  C 349.89 532.30 349.45 531.54 348.73 530.96
  Q 219.49 427.14 85.09 318.10
  Q 74.75 309.71 63.91 300.80
  C 53.32 292.09 39.97 279.73 38.87 264.99
  Q 38.19 255.86 40.99 247.75
  Q 54.18 209.53 64.62 175.34
  C 82.67 116.22 99.97 57.78 118.07 0.00
  Z"
/>
<path d="
  M 135.97 0.00
  L 137.57 0.00
  Q 110.75 88.54 83.64 176.99
  Q 73.66 209.53 64.45 235.50
  C 60.15 247.59 58.54 259.18 65.58 270.67
  C 71.66 280.57 80.67 287.98 90.10 295.65
  Q 228.29 407.93 382.36 531.64
  C 383.41 532.49 384.49 533.95 385.72 534.94
  Q 570.52 683.87 755.64 833.00
  L 753.18 833.00
  C 702.15 791.89 651.24 750.61 600.15 709.57
  Q 479.32 612.50 380.84 532.88
  C 380.03 532.23 379.58 531.44 378.76 530.78
  Q 246.93 424.85 111.24 314.88
  Q 98.20 304.30 85.81 294.15
  C 72.87 283.54 57.66 269.83 59.06 251.37
  C 59.42 246.72 60.63 241.34 62.26 236.84
  Q 67.70 221.79 71.65 209.46
  C 93.93 139.89 114.59 68.53 135.97 0.00
  Z"
/>
<path d="
  M 153.80 0.00
  L 155.52 0.00
  Q 140.89 47.97 126.40 95.94
  Q 113.16 139.79 99.49 183.51
  Q 91.87 207.86 84.77 227.53
  Q 81.83 235.68 81.12 242.99
  C 79.68 257.77 89.57 269.77 100.60 279.39
  Q 106.77 284.78 112.84 289.70
  Q 259.55 408.72 412.93 531.91
  C 413.79 532.59 414.18 533.51 415.00 534.17
  Q 600.28 683.49 785.89 833.00
  L 783.45 833.00
  Q 596.93 682.79 410.77 532.44
  Q 410.17 531.95 409.56 531.47
  Q 274.71 422.89 112.94 291.81
  C 103.06 283.80 93.17 275.92 86.13 266.00
  C 77.09 253.24 78.34 240.42 83.42 226.49
  Q 87.42 215.52 91.40 203.24
  Q 102.20 169.91 114.93 128.00
  Q 134.38 63.97 153.80 0.00
  Z"
/>
<path d="
  M 171.71 0.00
  L 173.35 0.00
  Q 131.49 139.57 119.70 176.26
  Q 112.68 198.15 104.19 222.61
  Q 102.25 228.18 101.58 233.91
  C 99.77 249.49 109.60 261.70 121.05 271.44
  Q 129.71 278.82 136.90 284.66
  Q 267.59 390.91 442.22 531.13
  C 443.43 532.10 444.22 533.26 445.42 534.23
  Q 532.32 604.68 794.69 815.42
  Q 798.70 818.64 801.75 821.21
  Q 808.61 826.99 815.76 833.00
  L 813.46 833.00
  Q 723.08 759.84 632.63 687.11
  Q 536.91 610.15 441.35 532.99
  C 440.59 532.37 440.29 531.61 439.52 530.99
  Q 265.03 390.66 143.51 292.18
  Q 131.31 282.29 120.34 272.90
  C 110.68 264.62 100.78 253.75 99.85 240.51
  C 98.97 228.14 104.72 216.46 108.54 204.98
  Q 119.08 173.25 128.75 141.50
  Q 150.31 70.73 171.71 0.00
  Z"
/>
<path d="
  M 189.62 0.00
  L 191.29 0.00
  Q 167.38 79.58 142.89 158.99
  Q 134.02 187.75 125.62 211.38
  Q 123.06 218.57 122.15 224.69
  C 119.28 243.97 133.76 257.63 147.90 269.12
  Q 246.77 349.45 312.83 402.67
  Q 390.66 465.37 473.78 532.51
  Q 474.38 532.99 474.98 533.48
  Q 610.83 643.33 795.13 791.63
  Q 812.26 805.42 845.92 833.00
  L 843.48 833.00
  Q 823.20 816.38 802.98 800.03
  C 800.61 798.11 798.05 796.43 795.81 794.36
  Q 794.34 793.00 792.81 791.77
  Q 642.56 670.79 472.77 534.01
  Q 471.58 533.05 470.48 531.74
  Q 469.92 531.09 469.51 530.76
  Q 319.01 409.84 164.81 284.94
  Q 149.31 272.39 137.85 262.41
  Q 130.91 256.37 125.38 247.76
  C 118.55 237.12 119.10 225.49 123.05 214.02
  Q 138.14 170.28 151.45 126.29
  Q 170.57 63.12 189.62 0.00
  Z"
/>
<path d="
  M 207.52 0.00
  L 209.25 0.00
  Q 191.38 59.28 173.44 118.55
  Q 163.43 151.61 144.41 208.55
  Q 142.84 213.25 142.30 218.10
  C 140.13 237.32 155.79 251.07 169.22 261.97
  Q 327.68 390.63 502.75 531.21
  Q 503.75 532.02 504.64 533.12
  Q 505.04 533.63 505.35 533.88
  Q 651.24 651.52 797.24 769.02
  Q 836.58 800.68 875.99 833.00
  L 873.58 833.00
  Q 833.98 800.55 794.21 768.53
  Q 565.79 584.67 501.33 532.66
  Q 501.05 532.43 500.78 531.88
  A 2.50 2.35 -84.9 0 0 500.12 531.04
  Q 330.58 394.85 171.27 265.72
  C 160.20 256.75 147.38 246.26 142.35 232.79
  C 138.98 223.76 140.63 213.57 143.84 204.56
  Q 152.72 179.62 161.84 150.08
  Q 184.98 75.08 207.52 0.00
  Z"
/>
<path d="
  M 225.54 0.00
  L 227.22 0.00
  Q 205.32 72.69 182.89 145.23
  Q 174.74 171.56 165.21 198.93
  Q 162.14 207.74 162.46 214.68
  Q 163.00 226.38 170.74 235.77
  Q 178.14 244.75 187.25 252.16
  Q 228.49 285.68 267.44 317.13
  Q 402.87 426.47 534.23 532.40
  Q 534.65 532.73 535.03 533.23
  Q 535.43 533.75 535.74 534.00
  Q 663.91 637.37 792.71 740.96
  C 794.59 742.47 797.03 744.04 799.06 745.70
  Q 851.81 788.62 896.87 825.38
  Q 901.27 828.96 905.69 833.00
  L 903.30 833.00
  Q 901.08 830.85 900.15 830.09
  C 866.72 802.74 833.10 775.64 799.52 748.48
  Q 780.10 732.77 760.63 717.12
  Q 615.03 600.06 531.75 532.77
  C 531.14 532.28 530.89 531.49 530.21 530.94
  C 414.09 437.55 299.57 345.70 185.40 252.58
  Q 175.31 244.35 168.19 235.05
  C 160.06 224.44 159.03 211.66 163.34 199.26
  Q 176.99 160.02 189.45 119.04
  Q 207.55 59.49 225.54 0.00
  Z"
/>
<path d="
  M 243.40 0.00
  L 245.08 0.00
  Q 221.44 79.65 196.43 158.86
  C 193.21 169.05 189.58 179.16 186.04 189.26
  Q 183.81 195.62 183.08 201.60
  Q 181.32 215.91 191.29 228.09
  Q 198.51 236.90 211.46 247.39
  Q 383.88 387.07 563.64 531.46
  Q 564.30 531.99 564.84 532.64
  Q 565.29 533.19 565.84 533.63
  Q 671.48 619.39 794.25 717.74
  Q 794.87 718.24 795.50 718.74
  Q 862.61 772.92 916.07 816.42
  Q 926.21 824.67 934.13 833.00
  L 932.06 833.00
  Q 927.25 827.92 923.52 824.75
  Q 912.21 815.13 894.21 800.54
  C 862.80 775.10 831.16 749.55 799.29 723.91
  Q 683.63 630.86 561.98 532.79
  A 1.86 1.83 9.0 0 1 561.41 532.02
  Q 561.20 531.49 560.76 531.13
  Q 358.46 368.68 213.74 251.12
  C 195.57 236.37 174.61 220.48 183.09 193.33
  C 186.68 181.84 192.27 166.74 196.52 153.23
  Q 220.55 76.77 243.40 0.00
  Z"
/>
<path d="
  M 261.37 0.00
  L 263.05 0.00
  Q 237.37 86.03 218.93 144.45
  Q 214.74 157.73 206.39 181.39
  C 204.90 185.61 203.76 190.17 203.30 194.60
  C 201.44 212.72 215.41 225.76 228.05 236.17
  Q 245.62 250.64 263.14 264.81
  Q 426.21 396.77 594.56 532.01
  Q 595.02 532.38 595.25 532.92
  Q 595.43 533.35 595.83 533.67
  Q 653.20 580.15 793.79 692.91
  Q 794.99 693.86 796.21 694.85
  Q 856.50 743.62 916.70 792.30
  Q 936.03 807.93 947.68 818.07
  Q 954.62 824.11 960.54 833.00
  L 958.70 833.00
  C 952.72 824.16 944.48 816.97 935.79 809.91
  Q 868.53 755.19 800.87 700.94
  Q 799.57 699.89 798.29 698.87
  Q 695.20 615.80 592.10 532.66
  C 591.51 532.18 591.44 531.50 590.77 530.96
  Q 412.73 387.95 236.96 245.55
  Q 225.03 235.89 216.87 228.23
  Q 211.50 223.18 207.41 216.94
  C 199.45 204.79 200.58 192.71 205.19 179.75
  Q 213.40 156.67 220.69 133.24
  Q 241.40 66.70 261.37 0.00
  Z"
/>
<path d="
  M 279.32 0.00
  L 280.99 0.00
  Q 259.99 70.41 237.81 140.45
  Q 232.29 157.90 226.68 173.72
  Q 223.57 182.49 223.56 190.33
  C 223.53 200.94 229.78 210.87 237.31 218.15
  Q 245.01 225.61 255.15 233.84
  C 378.18 333.74 501.55 432.87 624.94 532.14
  C 625.56 532.63 625.49 533.23 626.13 533.76
  Q 712.09 603.24 793.85 668.57
  Q 795.33 669.75 796.81 670.94
  Q 874.40 733.61 943.40 789.56
  Q 955.60 799.46 967.43 809.82
  Q 972.29 814.08 976.51 819.01
  Q 981.87 825.26 984.68 833.00
  L 983.04 833.00
  Q 979.20 823.55 972.24 816.48
  Q 964.84 808.98 955.41 801.32
  Q 890.10 748.23 801.29 676.71
  Q 800.45 676.03 799.60 675.35
  Q 720.24 611.73 622.28 532.66
  Q 621.96 532.40 621.75 531.89
  Q 621.53 531.41 621.12 531.07
  Q 463.08 403.99 300.12 272.38
  Q 271.64 249.38 243.30 225.94
  Q 239.45 222.75 234.55 217.54
  C 227.75 210.28 222.25 201.51 221.97 191.65
  Q 221.73 183.17 224.17 176.17
  Q 234.87 145.41 243.43 117.75
  Q 261.64 58.92 279.32 0.00
  Z"
/>
<path d="
  M 297.25 0.00
  L 298.95 0.00
  Q 282.66 54.34 265.92 108.50
  Q 257.56 135.54 246.32 168.02
  Q 243.02 177.55 244.19 186.37
  C 245.42 195.61 251.46 204.26 258.22 210.74
  Q 265.55 217.76 276.83 226.91
  Q 438.31 357.89 655.00 531.94
  C 655.77 532.56 655.94 533.42 656.77 534.09
  Q 728.51 591.96 794.44 644.74
  Q 795.23 645.37 796.00 646.00
  Q 880.91 714.43 956.34 775.59
  Q 970.08 786.73 983.68 798.07
  Q 991.59 804.66 998.02 812.47
  Q 1005.50 821.55 1006.71 833.00
  L 1005.10 833.00
  C 1003.61 820.10 995.44 810.31 986.01 802.24
  Q 972.31 790.52 958.30 779.16
  Q 881.31 716.72 802.31 653.10
  C 800.96 652.01 798.72 650.46 796.94 649.03
  Q 724.87 590.99 652.95 532.98
  C 652.04 532.25 651.72 531.26 650.75 530.49
  Q 444.44 364.90 275.73 228.01
  C 267.87 221.63 258.84 214.49 251.94 206.16
  Q 246.82 199.99 244.73 194.51
  Q 239.97 182.05 244.20 169.43
  Q 249.43 153.82 254.37 139.21
  Q 257.53 129.87 260.53 120.22
  Q 279.22 60.19 297.25 0.00
  Z"
/>
<path d="
  M 315.24 0.00
  L 316.93 0.00
  Q 298.77 60.48 279.92 120.70
  Q 275.68 134.25 269.19 152.39
  Q 264.73 164.81 264.27 171.75
  C 263.24 187.14 273.75 199.28 285.13 208.86
  Q 296.78 218.67 306.63 226.66
  Q 483.05 369.56 684.98 531.71
  C 685.94 532.48 686.19 533.45 687.19 534.27
  Q 740.16 576.95 794.14 620.33
  C 794.68 620.77 795.20 621.00 795.78 621.47
  Q 893.67 700.24 991.41 779.57
  C 1001.47 787.73 1011.96 795.89 1019.80 806.44
  Q 1028.74 818.46 1026.67 833.00
  L 1024.96 833.00
  C 1028.25 812.73 1012.61 798.97 998.62 787.58
  Q 905.93 712.04 801.30 627.94
  Q 800.53 627.32 799.77 626.71
  Q 742.67 580.91 682.96 532.85
  A 1.91 1.86 9.3 0 1 682.40 532.09
  Q 682.15 531.44 681.62 531.01
  Q 487.61 375.21 304.12 226.66
  Q 294.08 218.53 282.57 208.69
  C 271.69 199.38 261.95 187.39 262.66 172.59
  Q 262.99 165.66 265.17 159.36
  Q 276.09 127.79 283.91 102.50
  Q 299.75 51.28 315.24 0.00
  Z"
/>
<path d="
  M 333.22 0.00
  L 334.85 0.00
  Q 316.63 61.29 297.18 122.17
  C 294.26 131.30 290.98 140.31 287.88 149.38
  Q 284.35 159.69 284.59 167.19
  C 285.05 181.65 296.33 193.51 307.24 202.49
  Q 329.64 220.91 350.62 237.87
  Q 532.91 385.29 715.66 532.07
  C 716.39 532.66 716.23 533.31 717.01 533.93
  Q 754.39 564.05 794.20 595.86
  Q 795.36 596.79 796.50 597.71
  Q 920.99 697.98 1000.52 762.45
  Q 1013.62 773.07 1026.63 784.12
  Q 1032.29 788.92 1038.02 795.72
  Q 1052.04 812.34 1045.09 833.00
  L 1043.56 833.00
  Q 1044.74 828.65 1045.42 824.24
  C 1048.06 806.92 1035.88 793.74 1023.69 783.55
  Q 1013.33 774.90 1002.85 766.40
  Q 890.16 674.94 800.80 603.19
  Q 800.56 603.00 799.64 602.26
  Q 756.33 567.52 713.05 532.74
  Q 712.76 532.50 712.65 532.19
  Q 712.58 532.02 712.53 531.84
  Q 712.44 531.51 712.17 531.29
  Q 540.31 393.13 376.14 260.62
  Q 339.76 231.26 304.79 202.42
  C 292.76 192.50 281.45 179.15 283.08 162.82
  Q 283.78 155.90 286.19 149.20
  Q 290.26 137.92 293.43 128.24
  C 306.63 87.92 320.22 42.87 333.22 0.00
  Z"
/>
<path d="
  M 351.11 0.00
  L 352.78 0.00
  Q 334.77 60.59 315.25 120.69
  Q 312.15 130.26 308.41 140.92
  C 303.99 153.53 302.94 165.24 310.94 176.85
  Q 317.09 185.76 327.41 194.31
  Q 343.89 207.97 358.62 219.88
  Q 551.96 376.35 745.61 531.81
  C 746.51 532.53 746.49 533.29 747.42 534.04
  Q 770.78 552.87 794.01 571.56
  C 794.40 571.88 794.87 572.04 795.23 572.33
  Q 915.55 668.98 1032.83 764.31
  C 1046.30 775.26 1064.82 788.63 1067.49 807.05
  C 1068.68 815.25 1066.05 825.04 1062.83 833.00
  L 1061.23 833.00
  Q 1063.14 827.76 1064.65 822.54
  Q 1068.63 808.85 1062.35 796.51
  C 1057.83 787.65 1049.40 779.98 1041.51 773.47
  Q 1017.80 753.92 993.91 734.59
  C 928.06 681.31 862.95 628.76 798.42 577.06
  Q 768.68 553.22 743.28 532.43
  Q 742.99 532.20 742.80 531.87
  Q 742.50 531.36 742.04 530.99
  Q 583.87 403.79 423.73 274.63
  Q 376.72 236.72 332.20 200.39
  C 318.70 189.37 302.14 175.55 303.33 156.07
  Q 303.75 149.21 306.13 142.53
  Q 312.56 124.49 318.36 106.23
  Q 335.18 53.22 351.11 0.00
  Z"
/>
<path d="
  M 369.07 0.00
  L 370.74 0.00
  C 357.37 44.81 343.76 89.59 328.51 133.80
  C 326.85 138.62 325.61 143.60 325.33 148.68
  C 324.35 166.64 339.82 179.99 352.60 190.40
  Q 429.76 253.26 508.96 317.00
  Q 640.65 422.98 776.05 532.19
  Q 776.45 532.52 776.81 533.07
  Q 777.06 533.46 777.40 533.74
  Q 783.29 538.71 789.42 543.49
  Q 795.81 548.46 801.54 553.07
  C 886.92 621.76 972.82 690.62 1058.11 760.33
  C 1070.24 770.25 1085.22 782.26 1087.81 798.73
  Q 1088.89 805.60 1086.03 816.30
  Q 1083.75 824.82 1080.20 833.00
  L 1078.64 833.00
  Q 1081.53 825.42 1084.11 817.79
  Q 1091.36 796.41 1076.60 779.64
  Q 1070.68 772.91 1064.36 767.62
  Q 1053.85 758.80 1043.35 750.28
  Q 932.05 659.97 801.34 554.90
  Q 800.42 554.16 799.49 553.43
  Q 786.79 543.39 774.02 533.13
  C 773.04 532.34 772.82 531.33 771.76 530.48
  Q 568.25 367.10 369.07 205.96
  Q 357.44 196.55 346.22 187.05
  C 337.70 179.84 328.64 170.81 325.28 160.40
  C 322.28 151.11 323.94 141.68 327.20 132.52
  Q 334.89 110.89 341.87 88.61
  Q 355.73 44.36 369.07 0.00
  Z"
/>
<path d="
  M 387.01 0.00
  L 388.68 0.00
  Q 375.04 45.59 360.62 90.89
  Q 355.20 107.94 349.40 124.19
  C 345.41 135.36 343.61 146.65 349.66 157.57
  C 354.46 166.25 361.42 172.82 369.37 179.36
  Q 420.96 221.81 503.57 288.32
  Q 652.69 408.39 799.32 526.44
  C 799.83 526.85 799.99 527.47 800.49 527.87
  C 894.26 603.38 988.59 678.98 1081.43 754.81
  C 1090.76 762.43 1099.70 770.40 1105.02 780.79
  C 1109.66 789.85 1109.29 800.75 1105.81 810.75
  Q 1101.94 821.90 1098.05 833.00
  L 1096.41 833.00
  Q 1100.40 821.29 1104.32 809.66
  Q 1111.92 787.09 1095.47 770.01
  Q 1086.96 761.16 1079.15 754.81
  Q 1062.20 741.03 1045.65 727.64
  Q 912.86 620.21 795.68 525.79
  Q 795.00 525.24 794.33 524.70
  Q 645.72 404.89 498.65 286.37
  Q 440.81 239.75 372.51 184.17
  C 358.71 172.94 341.88 158.27 344.15 138.76
  C 344.75 133.61 346.06 128.89 347.81 123.87
  C 362.13 83.03 374.48 41.42 387.01 0.00
  Z"
/>
<path d="
  M 404.95 0.00
  L 406.60 0.00
  Q 392.54 47.04 377.41 93.73
  Q 373.79 104.89 369.96 115.51
  Q 367.19 123.18 366.27 130.04
  C 363.90 147.65 376.99 161.04 389.56 171.35
  Q 436.00 209.45 494.17 256.34
  Q 646.84 379.43 799.51 502.52
  Q 800.11 503.00 800.73 503.50
  Q 929.26 607.09 1057.59 710.92
  Q 1079.41 728.58 1101.20 746.30
  C 1111.04 754.29 1122.03 764.03 1126.73 775.98
  C 1130.51 785.60 1128.74 795.70 1125.33 805.25
  Q 1120.39 819.09 1115.82 833.00
  L 1114.14 833.00
  Q 1117.11 823.83 1124.44 802.94
  Q 1126.13 798.10 1126.90 791.92
  C 1129.61 770.15 1110.69 756.10 1095.36 743.63
  Q 964.02 636.84 796.06 502.02
  Q 795.71 501.74 795.24 501.18
  Q 794.79 500.64 794.35 500.28
  Q 626.84 365.28 459.36 230.12
  Q 427.34 204.28 392.89 176.32
  Q 383.74 168.90 375.71 160.30
  C 369.26 153.38 364.50 144.54 364.42 134.79
  Q 364.37 127.42 366.42 121.26
  Q 369.38 112.40 372.67 102.73
  C 384.02 69.36 391.77 43.43 404.95 0.00
  Z"
/>
<path d="
  M 422.93 0.00
  L 424.59 0.00
  Q 412.59 39.89 399.85 79.48
  Q 395.10 94.21 389.13 111.28
  C 385.22 122.46 385.09 133.30 391.41 143.50
  Q 397.19 152.82 407.74 161.50
  Q 455.54 200.87 517.37 250.68
  Q 660.76 366.20 798.71 477.27
  C 799.74 478.09 800.35 479.08 801.38 479.91
  Q 946.89 596.84 1095.33 716.96
  Q 1110.39 729.15 1125.63 741.85
  C 1137.29 751.57 1149.92 764.28 1149.16 780.72
  Q 1148.78 788.90 1145.64 797.57
  Q 1139.27 815.19 1133.62 833.00
  L 1131.92 833.00
  Q 1137.27 816.10 1143.18 799.42
  C 1145.61 792.58 1147.55 786.25 1147.56 779.21
  C 1147.56 768.77 1141.50 759.05 1134.29 751.96
  Q 1126.64 744.43 1115.82 735.66
  Q 956.10 606.20 795.80 477.46
  C 795.24 477.01 794.87 476.14 794.25 475.65
  Q 662.77 369.90 531.70 264.23
  Q 471.36 215.60 406.59 162.67
  Q 400.49 157.68 393.93 149.82
  C 388.06 142.81 384.24 134.08 384.76 124.79
  Q 385.21 116.76 388.63 107.44
  Q 394.20 92.24 402.64 65.48
  Q 412.97 32.77 422.93 0.00
  Z"
/>
<path d="
  M 440.83 0.00
  L 442.53 0.00
  Q 425.97 54.79 419.50 74.01
  Q 414.23 89.66 408.97 105.32
  Q 402.53 124.54 414.62 139.62
  Q 421.60 148.33 431.93 156.81
  Q 461.41 181.01 491.87 205.61
  Q 646.99 330.90 799.17 453.26
  C 799.77 453.75 800.04 454.43 800.62 454.90
  Q 947.01 572.65 1091.07 689.06
  Q 1114.68 708.14 1139.53 728.40
  Q 1147.99 735.30 1155.41 742.59
  C 1164.35 751.37 1170.31 761.72 1169.36 773.99
  Q 1168.78 781.47 1167.20 785.90
  Q 1158.85 809.33 1151.43 833.00
  L 1149.73 833.00
  Q 1156.61 811.01 1164.27 789.29
  C 1166.86 781.95 1168.88 773.96 1167.45 766.21
  C 1164.98 752.83 1154.06 742.66 1143.86 734.13
  Q 1132.45 724.58 1121.76 715.93
  Q 961.40 586.14 795.96 453.22
  C 795.17 452.58 794.78 451.73 794.00 451.10
  Q 634.10 322.46 502.01 215.85
  Q 464.95 185.94 428.36 155.86
  C 416.23 145.88 404.01 132.59 405.08 116.40
  Q 405.56 109.07 408.62 100.63
  Q 412.34 90.36 416.13 78.73
  Q 428.92 39.47 440.83 0.00
  Z"
/>
<path d="
  M 458.68 0.00
  L 460.37 0.00
  Q 445.92 48.87 429.46 97.06
  Q 422.67 116.92 435.56 132.46
  Q 442.58 140.92 451.08 147.90
  Q 467.47 161.34 483.87 174.61
  Q 641.50 302.16 799.44 429.33
  Q 800.05 429.82 800.66 430.31
  Q 947.43 548.68 1094.15 667.11
  Q 1132.16 697.79 1165.36 725.09
  C 1176.33 734.11 1189.55 746.85 1189.94 762.22
  Q 1190.14 770.15 1187.97 776.50
  Q 1175.36 813.44 1169.26 833.00
  L 1167.62 833.00
  Q 1175.52 807.01 1184.67 781.46
  C 1187.69 773.01 1189.64 763.60 1187.07 755.02
  C 1183.80 744.09 1174.72 734.90 1165.89 727.59
  Q 1142.62 708.34 1119.27 689.47
  Q 972.61 570.95 795.78 428.44
  Q 795.03 427.84 794.29 427.24
  Q 636.11 299.77 489.27 181.00
  Q 470.55 165.86 450.83 149.66
  C 437.20 138.47 422.95 124.65 425.86 105.07
  Q 426.84 98.43 428.77 92.89
  Q 444.83 46.77 458.68 0.00
  Z"
/>
<path d="
  M 476.60 0.00
  L 478.29 0.00
  Q 465.34 43.61 450.49 86.60
  C 448.86 91.30 447.72 96.08 447.48 101.02
  C 446.71 116.43 458.05 128.63 469.12 137.86
  Q 484.25 150.49 501.11 164.13
  Q 645.80 281.26 799.06 404.72
  Q 799.87 405.37 800.69 406.03
  Q 978.70 549.51 1131.39 672.87
  Q 1160.10 696.07 1185.64 717.06
  C 1195.65 725.29 1206.75 735.76 1209.59 748.93
  Q 1210.60 753.59 1210.12 758.83
  Q 1209.53 765.38 1208.07 769.52
  Q 1196.94 801.07 1187.20 833.00
  L 1185.52 833.00
  Q 1195.86 798.83 1204.26 775.48
  Q 1206.56 769.11 1207.79 763.53
  C 1211.91 744.93 1200.07 730.97 1186.73 720.00
  Q 1148.52 688.58 1109.85 657.37
  Q 950.97 529.17 795.97 404.53
  C 795.13 403.85 794.38 402.66 793.40 401.87
  Q 611.26 255.67 480.89 149.62
  C 471.81 142.23 462.05 134.71 454.46 125.25
  Q 441.20 108.74 448.26 88.26
  Q 463.37 44.40 476.60 0.00
  Z"
/>
<path d="
  M 494.51 0.00
  L 496.25 0.00
  Q 487.20 29.78 477.46 59.35
  C 474.91 67.08 471.69 75.18 469.44 83.13
  Q 464.48 100.69 474.67 114.46
  C 483.10 125.88 494.71 134.42 506.09 143.65
  Q 652.46 262.34 799.24 380.54
  Q 799.91 381.08 800.59 381.63
  Q 966.65 515.41 1139.52 654.94
  Q 1172.97 681.94 1206.19 709.26
  C 1219.21 719.97 1232.11 733.06 1230.52 751.19
  Q 1230.07 756.32 1225.42 769.96
  Q 1214.73 801.33 1205.06 833.00
  L 1203.43 833.00
  Q 1213.36 799.71 1225.96 763.75
  Q 1228.14 757.55 1228.84 750.83
  C 1230.65 733.47 1217.23 720.32 1204.82 710.16
  Q 1150.36 665.57 1090.69 617.49
  Q 943.24 498.67 795.81 380.02
  C 795.06 379.42 794.72 378.65 793.97 378.04
  Q 638.05 252.72 496.41 137.86
  C 482.08 126.24 464.07 111.38 466.26 91.00
  Q 466.88 85.28 469.04 79.04
  Q 482.64 39.76 494.51 0.00
  Z"
/>
<path d="
  M 512.52 0.00
  L 514.16 0.00
  Q 503.68 34.74 491.71 68.97
  C 487.44 81.17 486.08 92.63 493.43 104.06
  Q 499.49 113.49 509.91 122.06
  Q 553.44 157.84 601.86 196.89
  Q 696.58 273.29 799.22 355.94
  C 799.89 356.47 800.15 357.17 800.80 357.69
  Q 937.64 467.80 1089.52 590.18
  Q 1153.09 641.40 1212.38 689.63
  Q 1221.04 696.67 1228.92 703.32
  C 1237.85 710.85 1246.88 720.29 1249.95 731.56
  C 1251.64 737.76 1251.19 743.93 1249.62 750.06
  C 1247.37 758.84 1243.75 767.60 1240.87 776.39
  Q 1231.61 804.61 1222.96 833.00
  L 1221.32 833.00
  Q 1233.02 793.67 1246.51 754.98
  C 1250.09 744.72 1250.70 734.03 1245.28 724.27
  C 1240.18 715.09 1232.29 707.97 1223.73 700.98
  Q 1172.42 659.00 1117.10 614.39
  Q 956.53 484.93 795.93 355.52
  Q 795.05 354.81 794.17 354.10
  Q 675.55 258.58 520.53 132.98
  Q 513.80 127.53 505.65 120.36
  Q 495.42 111.35 490.27 101.76
  C 484.72 91.42 486.04 79.76 489.93 68.99
  C 498.13 46.27 505.32 23.08 512.52 0.00
  Z"
/>
<path d="
  M 530.37 0.00
  L 532.08 0.00
  Q 525.66 20.83 518.83 41.53
  C 516.11 49.78 512.89 58.11 510.36 66.54
  Q 504.61 85.69 517.29 101.02
  Q 522.93 107.84 528.08 112.16
  Q 547.54 128.48 569.45 146.23
  C 643.74 206.36 719.06 267.10 795.42 328.40
  Q 808.38 338.80 821.37 349.18
  C 822.02 349.69 821.94 350.42 822.69 351.01
  Q 997.78 491.75 1172.65 632.83
  Q 1215.22 667.18 1250.11 696.14
  Q 1255.57 700.67 1261.43 707.45
  Q 1275.10 723.27 1269.89 742.54
  Q 1268.60 747.34 1267.02 751.75
  C 1257.49 778.46 1249.17 805.82 1240.82 833.00
  L 1239.22 833.00
  Q 1252.09 789.54 1266.88 746.71
  Q 1269.22 739.91 1269.66 733.68
  C 1270.82 717.05 1257.46 704.03 1245.51 694.19
  Q 1218.72 672.12 1192.62 651.04
  Q 1006.20 500.50 818.83 349.91
  C 818.33 349.51 818.18 348.73 817.52 348.18
  C 809.72 341.62 801.68 335.54 793.66 329.09
  Q 690.17 245.85 586.89 162.37
  Q 557.32 138.48 529.08 115.12
  Q 520.85 108.32 514.66 100.16
  Q 505.52 88.11 507.11 74.54
  C 508.08 66.26 511.48 58.17 514.26 49.95
  Q 522.68 25.07 530.37 0.00
  Z"
/>
<path d="
  M 548.24 0.00
  L 549.89 0.00
  Q 539.22 35.19 533.57 49.76
  Q 530.40 57.94 529.28 65.47
  Q 527.25 79.11 536.04 90.96
  C 544.02 101.72 555.41 110.23 565.95 118.80
  Q 687.17 217.37 793.24 302.15
  Q 795.78 304.18 798.28 306.20
  Q 825.22 327.91 851.72 349.54
  Q 851.98 349.76 852.20 350.13
  Q 852.50 350.64 852.97 351.01
  Q 1020.66 485.88 1188.33 621.13
  Q 1230.79 655.38 1268.09 686.12
  C 1275.56 692.28 1282.98 699.48 1287.61 707.91
  C 1293.13 717.97 1292.59 729.20 1288.80 739.75
  C 1277.78 770.46 1268.25 801.78 1258.75 833.00
  L 1257.15 833.00
  Q 1271.29 784.98 1287.58 737.70
  Q 1294.90 716.47 1280.20 700.04
  Q 1273.73 692.81 1267.14 687.34
  Q 1247.39 670.97 1228.38 655.59
  Q 1047.00 508.92 848.96 349.83
  Q 848.60 349.54 848.47 349.10
  Q 848.33 348.63 847.95 348.32
  Q 822.59 327.80 795.95 306.54
  Q 723.28 248.55 559.02 115.19
  C 547.13 105.54 537.47 97.37 531.22 86.19
  C 525.78 76.44 526.48 65.40 530.13 54.94
  Q 539.66 27.61 548.24 0.00
  Z"
/>
<path d="
  M 566.09 0.00
  L 567.75 0.00
  Q 560.71 22.77 552.76 45.19
  C 551.04 50.03 549.71 55.09 549.30 60.24
  C 548.43 71.24 553.76 81.01 561.21 88.89
  Q 567.28 95.31 573.72 100.56
  Q 672.53 181.08 794.09 278.67
  C 794.62 279.10 795.20 279.30 795.70 279.70
  Q 838.87 314.69 882.06 349.32
  Q 882.23 349.46 882.30 349.67
  Q 882.37 349.83 882.42 350.01
  Q 882.58 350.52 883.00 350.86
  Q 1064.21 496.47 1240.63 639.06
  Q 1265.13 658.86 1289.61 679.09
  C 1298.16 686.16 1307.15 695.55 1310.56 706.08
  C 1313.14 714.06 1312.15 722.79 1309.44 730.75
  Q 1306.00 740.91 1302.06 752.04
  Q 1296.29 768.34 1276.67 833.00
  L 1274.95 833.00
  C 1285.28 799.03 1295.52 765.51 1307.51 731.51
  Q 1309.88 724.81 1310.36 717.61
  C 1311.47 701.28 1298.70 688.54 1286.75 678.70
  Q 1257.00 654.22 1224.93 628.33
  Q 1052.27 488.91 879.45 349.99
  C 878.68 349.37 878.80 348.74 878.10 348.17
  Q 839.72 317.30 801.39 286.38
  C 800.46 285.63 799.42 285.05 798.46 284.27
  Q 673.55 183.83 581.15 108.59
  C 573.01 101.96 564.34 95.03 557.26 86.73
  Q 542.30 69.18 550.46 47.01
  Q 556.08 31.74 566.09 0.00
  Z"
/>
<path d="
  M 583.89 0.00
  L 585.56 0.00
  Q 579.90 18.27 573.45 36.21
  Q 571.46 41.74 570.33 47.19
  C 566.25 66.89 579.57 80.61 594.00 92.46
  C 660.38 147.00 727.44 200.75 794.37 254.60
  C 794.73 254.88 795.08 254.97 795.43 255.25
  Q 853.73 302.18 912.35 349.41
  Q 912.47 349.51 912.53 349.65
  Q 912.60 349.82 912.66 350.01
  A 1.79 1.78 10.7 0 0 913.20 350.80
  Q 1080.72 485.47 1245.46 618.54
  Q 1271.07 639.22 1298.26 661.23
  Q 1308.53 669.54 1317.88 678.61
  C 1325.55 686.04 1331.99 695.52 1332.32 706.08
  Q 1332.62 715.58 1328.85 725.81
  Q 1323.39 740.60 1316.41 762.67
  Q 1305.28 797.79 1294.64 833.00
  L 1292.93 833.00
  C 1303.98 796.42 1314.88 760.65 1327.77 723.75
  C 1331.91 711.90 1332.27 699.84 1324.87 689.35
  Q 1318.23 679.93 1308.13 671.56
  Q 1295.53 661.11 1283.10 651.04
  Q 1106.81 508.34 910.18 350.41
  C 909.22 349.64 908.92 348.64 907.99 347.90
  Q 854.44 304.75 800.93 261.72
  C 800.32 261.23 799.69 260.95 799.07 260.45
  Q 715.24 192.91 635.66 128.45
  Q 613.93 110.85 592.07 92.85
  C 579.47 82.48 566.22 69.00 568.04 51.25
  Q 568.66 45.24 571.19 38.04
  Q 577.87 19.10 583.89 0.00
  Z"
/>
<path d="
  M 601.75 0.00
  L 603.40 0.00
  Q 598.64 14.71 593.44 29.23
  C 591.88 33.58 590.68 38.20 590.15 42.75
  C 588.35 58.21 597.90 70.33 609.36 80.15
  Q 618.21 87.74 627.61 95.39
  Q 709.52 162.09 794.12 229.84
  Q 796.11 231.43 798.02 232.97
  Q 870.95 291.70 942.17 349.11
  Q 942.75 349.57 943.10 350.24
  Q 943.38 350.77 943.86 351.16
  Q 1117.65 490.79 1291.15 631.08
  Q 1309.17 645.64 1328.17 661.34
  C 1340.56 671.57 1354.25 684.99 1352.61 702.50
  Q 1351.89 710.22 1349.99 715.51
  Q 1341.93 737.98 1334.55 761.51
  Q 1323.36 797.22 1312.57 833.00
  L 1310.87 833.00
  C 1322.81 793.33 1334.58 754.49 1348.54 714.51
  Q 1350.42 709.13 1350.97 702.64
  C 1352.43 685.31 1339.36 672.56 1326.87 662.25
  Q 1315.50 652.86 1304.59 644.03
  Q 1130.91 503.39 939.98 350.04
  C 939.30 349.50 939.18 348.67 938.54 348.15
  Q 872.20 294.70 804.44 240.15
  Q 801.88 238.10 799.13 236.12
  C 796.70 234.37 794.47 232.31 792.13 230.43
  Q 704.23 159.76 620.59 91.66
  C 610.21 83.20 598.74 73.98 592.48 62.78
  C 586.84 52.68 587.45 41.89 591.12 31.20
  Q 596.47 15.60 601.75 0.00
  Z"
/>
<path d="
  M 619.52 0.00
  L 621.19 0.00
  Q 617.41 11.36 613.50 22.62
  Q 611.01 29.78 610.43 35.67
  C 608.55 54.71 624.77 68.50 637.99 79.28
  Q 712.77 140.25 794.48 205.74
  Q 794.98 206.14 795.48 206.54
  Q 883.96 277.80 972.41 349.10
  Q 973.04 349.61 973.29 350.19
  Q 973.48 350.64 973.86 350.94
  Q 1148.74 491.48 1320.55 630.42
  Q 1338.09 644.60 1353.11 657.37
  C 1361.43 664.43 1369.66 673.85 1372.24 684.49
  C 1374.15 692.39 1372.57 701.20 1369.83 709.02
  C 1355.50 749.94 1343.01 791.50 1330.49 833.00
  L 1328.81 833.00
  Q 1338.71 800.05 1348.85 767.22
  Q 1358.36 736.42 1367.85 709.82
  C 1370.17 703.31 1372.04 695.69 1371.32 688.72
  C 1370.47 680.58 1366.07 672.85 1360.40 666.76
  Q 1353.40 659.25 1345.73 652.97
  Q 1326.15 636.94 1307.82 622.12
  Q 1140.98 487.24 970.41 350.16
  Q 970.06 349.88 969.61 349.33
  Q 969.24 348.87 968.79 348.50
  Q 898.01 290.89 801.39 213.36
  Q 800.41 212.57 799.42 211.78
  Q 718.43 146.76 646.09 87.90
  Q 638.53 81.74 631.14 75.59
  Q 621.05 67.18 614.06 56.91
  C 610.20 51.25 608.26 43.45 608.76 36.35
  Q 609.22 29.72 611.91 21.94
  Q 615.72 10.96 619.52 0.00
  Z"
/>
<path d="
  M 637.26 0.00
  L 638.91 0.00
  Q 633.90 13.34 632.29 19.24
  C 628.41 33.47 631.69 44.97 641.77 55.99
  Q 647.91 62.71 653.16 67.00
  Q 719.78 121.56 792.96 180.28
  C 795.23 182.11 797.60 183.73 799.94 185.61
  Q 897.81 264.82 1002.95 349.26
  Q 1003.31 349.55 1003.44 350.02
  A 1.52 1.51 11.7 0 0 1003.96 350.81
  Q 1170.63 484.77 1333.88 616.78
  Q 1352.53 631.86 1370.95 647.28
  Q 1377.89 653.09 1383.79 659.91
  Q 1397.61 675.90 1391.74 696.17
  Q 1390.88 699.14 1389.82 702.11
  Q 1383.54 719.72 1377.64 738.33
  Q 1362.67 785.59 1348.43 833.00
  L 1346.74 833.00
  Q 1363.34 777.61 1377.00 734.75
  Q 1381.99 719.07 1388.86 700.02
  Q 1390.82 694.57 1391.64 687.76
  C 1393.08 675.81 1387.47 665.51 1379.13 657.12
  Q 1370.89 648.83 1361.53 641.22
  C 1242.23 544.30 1122.51 448.13 1000.38 349.87
  C 999.70 349.32 999.58 348.61 998.87 348.05
  Q 902.63 270.47 801.03 188.70
  Q 800.47 188.25 799.91 187.79
  Q 728.56 130.63 654.94 70.56
  Q 644.39 61.95 636.71 52.08
  Q 625.95 38.24 630.04 21.51
  Q 632.19 12.68 637.26 0.00
  Z"
/>
<path d="
  M 654.76 0.00
  L 656.46 0.00
  Q 652.40 10.04 651.21 18.25
  C 648.90 34.32 659.97 47.52 671.37 57.13
  Q 684.93 68.56 699.85 80.65
  Q 745.04 117.27 790.32 153.87
  Q 793.34 156.32 796.43 158.80
  Q 940.12 273.94 1032.76 349.26
  Q 1033.28 349.69 1033.85 350.34
  Q 1034.56 351.15 1035.39 351.82
  Q 1227.86 506.30 1383.14 632.43
  C 1391.16 638.94 1399.70 645.92 1406.22 654.57
  Q 1416.81 668.62 1412.66 685.73
  Q 1411.55 690.30 1409.98 694.74
  Q 1403.65 712.58 1398.13 730.02
  Q 1381.87 781.42 1366.36 833.00
  L 1364.68 833.00
  Q 1379.78 782.59 1395.60 732.42
  Q 1401.50 713.71 1408.95 692.74
  Q 1411.03 686.89 1411.87 680.79
  C 1414.27 663.31 1402.62 650.81 1390.15 640.33
  Q 1378.32 630.38 1367.06 621.26
  Q 1201.16 486.93 1030.99 350.24
  C 1030.29 349.68 1030.01 348.88 1029.37 348.36
  Q 910.24 252.19 800.36 163.98
  Q 799.84 163.56 799.49 163.28
  Q 744.35 118.77 681.26 67.59
  Q 671.67 59.81 662.41 50.69
  C 652.92 41.34 647.54 29.35 649.97 16.00
  Q 651.41 8.08 654.76 0.00
  Z"
/>
<path d="
  M 672.36 0.00
  L 673.94 0.00
  Q 673.20 2.76 672.51 5.52
  Q 668.51 21.72 678.23 34.76
  Q 684.76 43.53 692.54 49.94
  Q 742.13 90.73 794.88 133.09
  Q 952.16 259.42 1061.80 348.09
  Q 1063.08 349.13 1064.09 350.35
  Q 1064.52 350.86 1065.01 351.25
  Q 1245.77 496.45 1396.17 618.48
  C 1405.42 625.99 1415.44 633.63 1423.48 642.77
  C 1431.19 651.53 1435.66 661.74 1433.78 673.62
  Q 1432.74 680.13 1429.93 688.00
  Q 1423.38 706.31 1416.81 727.25
  Q 1400.23 780.05 1384.37 833.00
  L 1382.67 833.00
  Q 1393.10 798.17 1410.70 741.25
  Q 1420.48 709.60 1429.72 683.51
  C 1434.16 670.95 1433.64 658.82 1425.54 647.93
  C 1417.60 637.22 1406.71 629.01 1396.37 620.62
  Q 1246.00 498.65 1061.01 350.05
  C 1060.41 349.56 1060.10 348.93 1059.41 348.37
  Q 966.63 273.16 800.56 139.69
  Q 800.06 139.28 799.56 138.88
  Q 749.91 98.87 695.10 54.38
  Q 683.23 44.74 675.78 34.22
  Q 671.03 27.50 669.79 18.02
  Q 668.78 10.19 672.36 0.00
  Z"
/>
<path d="
  M 690.78 0.00
  L 692.28 0.00
  Q 689.55 16.81 700.76 29.76
  Q 707.46 37.50 714.48 43.29
  Q 751.95 74.19 801.29 113.88
  Q 947.10 231.15 1093.49 349.23
  C 1094.14 349.76 1094.19 350.39 1094.86 350.93
  Q 1259.13 482.94 1401.65 598.37
  Q 1416.61 610.48 1430.90 622.34
  Q 1437.95 628.19 1444.55 635.69
  Q 1458.80 651.88 1452.70 672.34
  C 1449.79 682.10 1445.24 693.91 1441.86 704.53
  Q 1421.47 768.60 1402.35 833.00
  L 1400.63 833.00
  Q 1418.78 772.08 1437.96 711.51
  Q 1443.64 693.54 1449.64 676.73
  C 1453.63 665.56 1454.54 654.63 1448.68 644.33
  Q 1446.09 639.77 1442.57 635.81
  Q 1435.56 627.89 1426.47 620.51
  Q 1406.04 603.92 1385.58 587.38
  Q 1238.85 468.72 1091.11 349.59
  Q 1090.45 349.05 1089.77 348.51
  Q 959.13 242.84 801.22 115.78
  Q 761.21 83.58 721.43 51.09
  C 706.48 38.88 685.41 22.39 690.78 0.00
  Z"
/>
<path d="
  M 710.52 0.00
  L 712.02 0.00
  C 713.10 17.36 727.27 29.22 740.01 39.64
  Q 764.76 59.89 791.60 81.64
  Q 793.18 82.93 794.95 84.22
  C 797.77 86.27 800.29 88.69 803.00 90.87
  Q 963.24 219.86 1123.27 348.84
  C 1124.19 349.58 1124.42 350.41 1125.30 351.11
  Q 1293.03 485.79 1439.33 604.55
  Q 1446.92 610.70 1457.01 619.48
  C 1466.34 627.59 1474.64 638.91 1474.92 651.58
  C 1475.04 657.03 1473.62 663.41 1471.81 668.52
  Q 1463.05 693.29 1455.39 717.90
  Q 1437.50 775.39 1420.24 833.00
  L 1418.54 833.00
  Q 1434.32 780.41 1450.55 728.01
  Q 1459.84 698.04 1465.41 682.06
  C 1469.66 669.88 1473.97 660.33 1473.07 649.21
  C 1471.94 635.14 1460.21 623.86 1450.05 615.44
  Q 1435.85 603.67 1423.07 593.31
  Q 1277.31 475.19 1121.69 350.19
  C 1120.87 349.53 1120.49 348.65 1119.69 348.00
  Q 1047.05 289.34 804.26 93.89
  Q 801.75 91.86 799.26 89.99
  C 796.53 87.94 794.08 85.60 791.42 83.46
  Q 763.19 60.76 735.32 37.71
  C 723.97 28.32 710.76 15.93 710.52 0.00
  Z"
/>
<path d="
  M 732.07 0.00
  L 733.69 0.00
  C 739.26 15.54 752.77 25.37 765.09 35.54
  Q 782.06 49.54 797.62 61.83
  Q 798.76 62.73 799.90 63.63
  Q 809.66 71.37 819.53 79.49
  Q 820.08 79.94 820.60 80.36
  Q 868.62 119.45 928.19 167.36
  Q 1041.13 258.19 1153.71 349.06
  C 1154.42 349.63 1154.63 350.31 1155.32 350.87
  Q 1284.01 454.40 1416.08 561.12
  Q 1444.89 584.39 1473.43 608.04
  Q 1480.22 613.66 1485.94 620.51
  Q 1500.04 637.38 1492.88 658.29
  Q 1478.12 701.36 1467.34 736.68
  Q 1452.65 784.84 1438.17 833.00
  L 1436.48 833.00
  Q 1448.31 793.49 1460.21 754.07
  Q 1473.83 708.92 1491.66 656.93
  Q 1493.70 650.97 1493.59 643.60
  Q 1493.43 634.12 1487.99 626.06
  Q 1481.75 616.82 1471.67 608.52
  Q 1433.30 576.95 1399.13 549.36
  Q 1268.37 443.77 1151.76 349.70
  Q 1150.81 348.94 1149.86 348.17
  Q 979.66 210.74 796.34 62.88
  Q 774.36 45.15 752.68 27.05
  Q 746.01 21.49 740.38 14.89
  Q 734.72 8.25 732.07 0.00
  Z"
/>
<path d="
  M 755.86 0.00
  L 757.75 0.00
  C 762.25 7.59 769.31 14.27 776.39 20.12
  Q 789.50 30.95 799.67 39.05
  Q 823.84 58.31 849.65 79.23
  C 850.45 79.88 850.96 80.81 851.84 81.51
  Q 1017.26 214.63 1183.22 348.44
  C 1184.38 349.38 1185.10 350.44 1186.27 351.39
  Q 1301.44 444.13 1416.33 536.88
  Q 1457.08 569.78 1492.70 599.12
  C 1505.85 609.95 1517.83 623.44 1515.26 641.51
  Q 1514.47 647.11 1512.76 652.00
  Q 1501.59 684.02 1493.41 710.48
  Q 1474.50 771.69 1456.12 833.00
  L 1454.44 833.00
  Q 1475.49 762.46 1497.54 692.26
  Q 1503.44 673.48 1510.83 652.58
  C 1515.39 639.70 1515.53 628.07 1507.23 616.46
  Q 1501.91 609.02 1494.88 603.07
  Q 1480.23 590.68 1460.39 574.61
  Q 1325.62 465.48 1181.71 349.51
  Q 1181.04 348.97 1180.37 348.43
  Q 1016.30 215.68 814.69 53.57
  Q 811.17 50.74 807.17 47.06
  C 803.91 44.06 800.13 41.57 796.71 38.82
  Q 781.80 26.83 769.94 16.57
  Q 761.85 9.58 755.86 0.00
  Z"
/>
<path d="
  M 781.91 0.00
  L 783.93 0.00
  Q 790.91 7.47 800.11 14.90
  Q 839.86 46.97 879.66 78.99
  C 880.32 79.52 880.70 80.35 881.25 80.79
  C 919.13 111.31 956.97 141.89 994.89 172.38
  Q 1111.89 266.46 1214.42 349.36
  C 1215.01 349.84 1215.28 350.47 1215.83 350.91
  Q 1345.67 455.28 1474.19 559.31
  Q 1492.49 574.13 1512.11 590.36
  C 1523.09 599.44 1535.18 611.38 1535.99 626.57
  C 1536.51 636.40 1532.40 646.38 1529.12 655.49
  Q 1526.78 662.00 1524.62 668.65
  C 1506.98 723.19 1490.69 778.17 1474.02 833.00
  L 1472.35 833.00
  Q 1489.99 774.50 1507.82 716.11
  Q 1519.26 678.63 1532.46 640.73
  Q 1533.11 638.84 1533.96 633.00
  C 1536.55 614.98 1523.63 601.91 1511.01 591.45
  Q 1497.81 580.51 1484.37 569.62
  Q 1363.70 471.86 1212.37 349.86
  Q 1211.33 349.02 1210.28 348.17
  Q 1126.53 280.28 1053.49 221.52
  Q 948.27 136.86 840.66 50.08
  C 839.74 49.34 839.16 48.40 838.35 47.75
  Q 819.84 32.82 801.33 17.91
  Q 789.61 8.47 781.91 0.00
  Z"
/>
<path d="
  M 809.43 0.00
  L 811.87 0.00
  Q 860.95 39.59 909.93 79.09
  C 910.72 79.73 911.13 80.50 911.89 81.11
  C 949.37 111.29 987.10 141.93 1025.37 172.65
  Q 1135.92 261.38 1244.12 348.89
  C 1245.02 349.61 1245.51 350.45 1246.42 351.19
  Q 1387.81 464.79 1523.53 574.91
  C 1532.67 582.34 1542.63 590.35 1549.49 600.00
  Q 1560.27 615.19 1554.06 634.06
  C 1551.19 642.76 1548.07 651.04 1545.39 659.36
  C 1526.71 717.20 1509.54 775.06 1492.00 833.00
  L 1490.34 833.00
  Q 1501.58 795.57 1527.37 711.01
  Q 1540.05 669.42 1552.63 633.19
  Q 1553.71 630.06 1554.39 625.00
  C 1557.03 605.30 1541.49 591.71 1527.88 580.54
  Q 1504.73 561.55 1480.67 542.09
  Q 1359.81 444.37 1242.20 349.52
  Q 1241.53 348.97 1240.85 348.42
  C 1168.20 289.59 1095.08 230.71 1021.68 171.54
  Q 946.15 110.65 870.55 49.84
  C 870.05 49.44 869.82 48.71 869.38 48.36
  Q 839.54 24.33 809.43 0.00
  Z"
/>
<path d="
  M 839.71 0.00
  L 842.19 0.00
  Q 891.09 39.58 940.05 78.94
  C 940.85 79.58 941.34 80.45 942.19 81.14
  Q 996.08 124.62 1053.74 170.99
  Q 1056.06 172.86 1056.66 173.34
  Q 1163.96 259.61 1274.93 349.60
  Q 1275.47 350.04 1276.01 350.47
  Q 1382.54 436.35 1487.41 521.09
  Q 1519.33 546.89 1551.05 572.94
  C 1563.49 583.16 1577.90 596.68 1576.59 614.25
  Q 1576.10 620.80 1574.68 625.26
  C 1571.64 634.82 1567.86 644.81 1564.91 653.95
  C 1545.77 713.37 1528.02 773.26 1509.94 833.00
  L 1508.30 833.00
  Q 1544.84 710.79 1558.28 668.99
  Q 1564.64 649.21 1571.01 631.25
  Q 1573.62 623.91 1574.64 617.52
  C 1577.72 598.30 1562.63 584.40 1549.39 573.54
  Q 1526.72 554.94 1503.55 536.20
  Q 1393.05 446.80 1272.58 349.65
  Q 1271.83 349.05 1271.08 348.44
  Q 1158.40 257.16 1054.01 173.25
  Q 1052.10 171.71 1050.22 170.20
  Q 971.60 106.81 900.63 49.72
  C 900.18 49.35 899.96 48.67 899.61 48.39
  Q 869.81 24.35 839.71 0.00
  Z"
/>
</g>
</svg>
