<?xml version="1.0" encoding="UTF-8" standalone="no"?>
<!DOCTYPE svg PUBLIC "-//W3C//DTD SVG 1.1//EN" "http://www.w3.org/Graphics/SVG/1.1/DTD/svg11.dtd">
<svg xmlns="http://www.w3.org/2000/svg" version="1.1" viewBox="0.00 0.00 32.00 31.00">
<g stroke-width="2.00" fill="none" stroke-linecap="butt">
<path stroke="#839797" vector-effect="non-scaling-stroke" d="
  M 10.57 20.41
  L 18.09 20.42
  Q 18.84 20.42 19.14 21.12
  L 20.36 23.97
  A 0.79 0.79 0.0 0 1 19.94 25.01
  L 17.82 25.91
  Q 16.61 26.42 17.92 26.42
  L 26.73 26.43
  Q 27.51 26.43 26.93 25.92
  C 26.20 25.27 25.56 24.93 25.16 23.97
  Q 20.94 13.68 16.28 2.56
  Q 16.10 2.13 15.76 2.46
  L 12.70 5.48
  A 0.68 0.67 56.0 0 0 12.56 6.22
  Q 12.77 6.72 13.21 7.06
  A 0.78 0.78 0.0 0 1 13.46 7.98
  Q 10.04 16.45 6.89 24.03
  C 6.57 24.81 5.92 25.31 5.28 25.83
  Q 4.58 26.39 5.48 26.40
  L 11.06 26.43
  Q 12.00 26.44 11.15 26.02
  L 8.80 24.88
  A 0.71 0.70 -65.8 0 1 8.46 23.98
  L 9.70 20.99
  Q 9.95 20.41 10.57 20.41"
/>
<path stroke="#839797" vector-effect="non-scaling-stroke" d="
  M 10.73 18.53
  A 0.35 0.35 0.0 0 0 11.05 19.02
  L 17.79 18.99
  A 0.35 0.35 0.0 0 0 18.11 18.51
  L 14.71 10.33
  A 0.35 0.35 0.0 0 0 14.07 10.33
  L 10.73 18.53"
/>
</g>
<g fill="#ebebeb">
<path d="
  M 6.90 0.00
  L 25.20 0.00
  Q 30.64 1.38 32.00 6.64
  L 32.00 24.46
  Q 30.56 29.64 25.35 31.00
  L 6.54 31.00
  Q 1.33 29.54 0.00 24.36
  L 0.00 6.53
  Q 1.49 1.26 6.90 0.00
  Z
  M 10.57 20.41
  L 18.09 20.42
  Q 18.84 20.42 19.14 21.12
  L 20.36 23.97
  A 0.79 0.79 0.0 0 1 19.94 25.01
  L 17.82 25.91
  Q 16.61 26.42 17.92 26.42
  L 26.73 26.43
  Q 27.51 26.43 26.93 25.92
  C 26.20 25.27 25.56 24.93 25.16 23.97
  Q 20.94 13.68 16.28 2.56
  Q 16.10 2.13 15.76 2.46
  L 12.70 5.48
  A 0.68 0.67 56.0 0 0 12.56 6.22
  Q 12.77 6.72 13.21 7.06
  A 0.78 0.78 0.0 0 1 13.46 7.98
  Q 10.04 16.45 6.89 24.03
  C 6.57 24.81 5.92 25.31 5.28 25.83
  Q 4.58 26.39 5.48 26.40
  L 11.06 26.43
  Q 12.00 26.44 11.15 26.02
  L 8.80 24.88
  A 0.71 0.70 -65.8 0 1 8.46 23.98
  L 9.70 20.99
  Q 9.95 20.41 10.57 20.41
  Z"
/>
<path d="
  M 10.73 18.53
  L 14.07 10.33
  A 0.35 0.35 0.0 0 1 14.71 10.33
  L 18.11 18.51
  A 0.35 0.35 0.0 0 1 17.79 18.99
  L 11.05 19.02
  A 0.35 0.35 0.0 0 1 10.73 18.53
  Z"
/>
</g>
<path fill="#1b4242" d="
  M 9.70 20.99
  L 8.46 23.98
  A 0.71 0.70 -65.8 0 0 8.80 24.88
  L 11.15 26.02
  Q 12.00 26.44 11.06 26.43
  L 5.48 26.40
  Q 4.58 26.39 5.28 25.83
  C 5.92 25.31 6.57 24.81 6.89 24.03
  Q 10.04 16.45 13.46 7.98
  A 0.78 0.78 0.0 0 0 13.21 7.06
  Q 12.77 6.72 12.56 6.22
  A 0.68 0.67 56.0 0 1 12.70 5.48
  L 15.76 2.46
  Q 16.10 2.13 16.28 2.56
  Q 20.94 13.68 25.16 23.97
  C 25.56 24.93 26.20 25.27 26.93 25.92
  Q 27.51 26.43 26.73 26.43
  L 17.92 26.42
  Q 16.61 26.42 17.82 25.91
  L 19.94 25.01
  A 0.79 0.79 0.0 0 0 20.36 23.97
  L 19.14 21.12
  Q 18.84 20.42 18.09 20.42
  L 10.57 20.41
  Q 9.95 20.41 9.70 20.99
  Z
  M 10.73 18.53
  A 0.35 0.35 0.0 0 0 11.05 19.02
  L 17.79 18.99
  A 0.35 0.35 0.0 0 0 18.11 18.51
  L 14.71 10.33
  A 0.35 0.35 0.0 0 0 14.07 10.33
  L 10.73 18.53
  Z"
/>
</svg>
