<?xml version="1.0" encoding="UTF-8" standalone="no"?>
<!DOCTYPE svg PUBLIC "-//W3C//DTD SVG 1.1//EN" "http://www.w3.org/Graphics/SVG/1.1/DTD/svg11.dtd">
<svg xmlns="http://www.w3.org/2000/svg" version="1.1" viewBox="0.00 0.00 250.00 250.00">
<path fill="#bbd4ce" d="
  M 61.28 0.00
  L 62.73 0.00
  L 62.77 59.76
  Q 62.77 60.26 63.26 60.26
  L 185.73 60.26
  Q 186.22 60.26 186.22 59.76
  L 186.28 0.00
  L 187.74 0.00
  L 187.79 59.71
  Q 187.79 60.21 188.30 60.21
  L 250.00 60.25
  L 250.00 61.73
  L 188.22 61.79
  Q 187.74 61.79 187.74 62.28
  L 187.74 186.73
  Q 187.74 187.24 188.25 187.24
  L 250.00 187.26
  L 250.00 188.75
  L 188.26 188.78
  Q 187.76 188.78 187.76 189.28
  L 187.72 250.00
  L 186.27 250.00
  L 186.21 189.24
  Q 186.21 188.74 185.71 188.74
  L 63.28 188.73
  Q 62.77 188.73 62.77 189.25
  L 62.72 250.00
  L 61.27 250.00
  L 61.22 189.29
  Q 61.22 188.78 60.71 188.77
  L 0.00 188.73
  L 0.00 187.25
  L 60.75 187.23
  Q 61.26 187.23 61.26 186.72
  L 61.26 62.29
  Q 61.26 61.79 60.76 61.79
  L 0.00 61.73
  L 0.00 60.25
  L 60.73 60.24
  Q 61.23 60.24 61.23 59.74
  L 61.28 0.00
  Z
  M 186.26 62.00
  A 0.26 0.26 0.0 0 0 186.00 61.74
  L 63.00 61.74
  A 0.26 0.26 0.0 0 0 62.74 62.00
  L 62.74 187.00
  A 0.26 0.26 0.0 0 0 63.00 187.26
  L 186.00 187.26
  A 0.26 0.26 0.0 0 0 186.26 187.00
  L 186.26 62.00
  Z"
/>
</svg>
